<!DOCTYPE svg PUBLIC "-//W3C//DTD SVG 1.1//EN" "http://www.w3.org/Graphics/SVG/1.1/DTD/svg11.dtd">
<!-- Uploaded to: SVG Repo, www.svgrepo.com, Transformed by: SVG Repo Mixer Tools -->
<svg width="800px" height="800px" viewBox="0 0 24 24" fill="none" xmlns="http://www.w3.org/2000/svg" __cpp="1" __cpOriginalValueOfInnerhtml="&lt;g id=&quot;SVGRepo_bgCarrier&quot; stroke-width=&quot;0&quot; __cpp=&quot;1&quot;&gt;&lt;/g&gt;&lt;g id=&quot;SVGRepo_tracerCarrier&quot; stroke-linecap=&quot;round&quot; stroke-linejoin=&quot;round&quot; __cpp=&quot;1&quot;&gt;&lt;/g&gt;&lt;g id=&quot;SVGRepo_iconCarrier&quot; __cpp=&quot;1&quot;&gt; &lt;path d=&quot;M13 9H7&quot; stroke=&quot;#f5f5f5&quot; stroke-width=&quot;1.5&quot; stroke-linecap=&quot;round&quot; stroke-linejoin=&quot;round&quot; __cpp=&quot;1&quot;&gt;&lt;/path&gt; &lt;path d=&quot;M22 10.9699V13.03C22 13.58 21.56 14.0299 21 14.0499H19.0399C17.9599 14.0499 16.97 13.2599 16.88 12.1799C16.82 11.5499 17.0599 10.9599 17.4799 10.5499C17.8499 10.1699 18.36 9.94995 18.92 9.94995H21C21.56 9.96995 22 10.4199 22 10.9699Z&quot; stroke=&quot;#f5f5f5&quot; stroke-width=&quot;1.5&quot; stroke-linecap=&quot;round&quot; stroke-linejoin=&quot;round&quot; __cpp=&quot;1&quot;&gt;&lt;/path&gt; &lt;path d=&quot;M17.48 10.55C17.06 10.96 16.82 11.55 16.88 12.18C16.97 13.26 17.96 14.05 19.04 14.05H21V15.5C21 18.5 19 20.5 16 20.5H7C4 20.5 2 18.5 2 15.5V8.5C2 5.78 3.64 3.88 6.19 3.56C6.45 3.52 6.72 3.5 7 3.5H16C16.26 3.5 16.51 3.50999 16.75 3.54999C19.33 3.84999 21 5.76 21 8.5V9.95001H18.92C18.36 9.95001 17.85 10.17 17.48 10.55Z&quot; stroke=&quot;#f5f5f5&quot; stroke-width=&quot;1.5&quot; stroke-linecap=&quot;round&quot; stroke-linejoin=&quot;round&quot; __cpp=&quot;1&quot;&gt;&lt;/path&gt; &lt;/g&gt;">
<g id="SVGRepo_bgCarrier" stroke-width="0" __cpp="1"/>
<g id="SVGRepo_tracerCarrier" stroke-linecap="round" stroke-linejoin="round" __cpp="1"/>
<g id="SVGRepo_iconCarrier" __cpp="1"> <path d="M13 9H7" stroke="#f5f5f5" stroke-width="1.5" stroke-linecap="round" stroke-linejoin="round" __cpp="1"/> <path d="M22 10.9699V13.03C22 13.58 21.56 14.0299 21 14.0499H19.0399C17.9599 14.0499 16.97 13.2599 16.88 12.1799C16.82 11.5499 17.0599 10.9599 17.4799 10.5499C17.8499 10.1699 18.36 9.94995 18.92 9.94995H21C21.56 9.96995 22 10.4199 22 10.9699Z" stroke="#f5f5f5" stroke-width="1.5" stroke-linecap="round" stroke-linejoin="round" __cpp="1"/> <path d="M17.48 10.55C17.06 10.96 16.82 11.55 16.88 12.18C16.97 13.26 17.96 14.05 19.04 14.05H21V15.5C21 18.5 19 20.5 16 20.5H7C4 20.5 2 18.5 2 15.5V8.5C2 5.78 3.64 3.88 6.19 3.56C6.45 3.52 6.72 3.5 7 3.5H16C16.26 3.5 16.51 3.50999 16.75 3.54999C19.33 3.84999 21 5.76 21 8.5V9.95001H18.92C18.36 9.95001 17.85 10.17 17.48 10.55Z" stroke="#f5f5f5" stroke-width="1.5" stroke-linecap="round" stroke-linejoin="round" __cpp="1"/> </g>
</svg>