<!DOCTYPE svg PUBLIC "-//W3C//DTD SVG 1.1//EN" "http://www.w3.org/Graphics/SVG/1.1/DTD/svg11.dtd">
<!-- Uploaded to: SVG Repo, www.svgrepo.com, Transformed by: SVG Repo Mixer Tools -->
<svg width="800px" height="800px" viewBox="0 0 24 24" fill="none" xmlns="http://www.w3.org/2000/svg" __cpp="1" __cpOriginalValueOfInnerhtml="&lt;g id=&quot;SVGRepo_bgCarrier&quot; stroke-width=&quot;0&quot; __cpp=&quot;1&quot;&gt;&lt;/g&gt;&lt;g id=&quot;SVGRepo_tracerCarrier&quot; stroke-linecap=&quot;round&quot; stroke-linejoin=&quot;round&quot; __cpp=&quot;1&quot;&gt;&lt;/g&gt;&lt;g id=&quot;SVGRepo_iconCarrier&quot; __cpp=&quot;1&quot;&gt; &lt;path d=&quot;M3 9.11011V14.8801C3 17.0001 3 17.0001 5 18.3501L10.5 21.5301C11.33 22.0101 12.68 22.0101 13.5 21.5301L19 18.3501C21 17.0001 21 17.0001 21 14.8901V9.11011C21 7.00011 21 7.00011 19 5.65011L13.5 2.47011C12.68 1.99011 11.33 1.99011 10.5 2.47011L5 5.65011C3 7.00011 3 7.00011 3 9.11011Z&quot; stroke=&quot;#f5f5f5&quot; stroke-width=&quot;1.5&quot; stroke-linecap=&quot;round&quot; stroke-linejoin=&quot;round&quot; __cpp=&quot;1&quot;&gt;&lt;/path&gt; &lt;path d=&quot;M12 15C13.6569 15 15 13.6569 15 12C15 10.3431 13.6569 9 12 9C10.3431 9 9 10.3431 9 12C9 13.6569 10.3431 15 12 15Z&quot; stroke=&quot;#f5f5f5&quot; stroke-width=&quot;1.5&quot; stroke-linecap=&quot;round&quot; stroke-linejoin=&quot;round&quot; __cpp=&quot;1&quot;&gt;&lt;/path&gt; &lt;/g&gt;">
<g id="SVGRepo_bgCarrier" stroke-width="0" __cpp="1"/>
<g id="SVGRepo_tracerCarrier" stroke-linecap="round" stroke-linejoin="round" __cpp="1"/>
<g id="SVGRepo_iconCarrier" __cpp="1"> <path d="M3 9.11011V14.8801C3 17.0001 3 17.0001 5 18.3501L10.5 21.5301C11.33 22.0101 12.68 22.0101 13.5 21.5301L19 18.3501C21 17.0001 21 17.0001 21 14.8901V9.11011C21 7.00011 21 7.00011 19 5.65011L13.5 2.47011C12.68 1.99011 11.33 1.99011 10.5 2.47011L5 5.65011C3 7.00011 3 7.00011 3 9.11011Z" stroke="#f5f5f5" stroke-width="1.5" stroke-linecap="round" stroke-linejoin="round" __cpp="1"/> <path d="M12 15C13.6569 15 15 13.6569 15 12C15 10.3431 13.6569 9 12 9C10.3431 9 9 10.3431 9 12C9 13.6569 10.3431 15 12 15Z" stroke="#f5f5f5" stroke-width="1.5" stroke-linecap="round" stroke-linejoin="round" __cpp="1"/> </g>
</svg>