<!DOCTYPE svg PUBLIC "-//W3C//DTD SVG 1.1//EN" "http://www.w3.org/Graphics/SVG/1.1/DTD/svg11.dtd">
<!-- Uploaded to: SVG Repo, www.svgrepo.com, Transformed by: SVG Repo Mixer Tools -->
<svg width="800px" height="800px" viewBox="0 0 24 24" fill="none" xmlns="http://www.w3.org/2000/svg" __cpp="1" __cpOriginalValueOfInnerhtml="&lt;g id=&quot;SVGRepo_bgCarrier&quot; stroke-width=&quot;0&quot; __cpp=&quot;1&quot;&gt;&lt;/g&gt;&lt;g id=&quot;SVGRepo_tracerCarrier&quot; stroke-linecap=&quot;round&quot; stroke-linejoin=&quot;round&quot; __cpp=&quot;1&quot;&gt;&lt;/g&gt;&lt;g id=&quot;SVGRepo_iconCarrier&quot; __cpp=&quot;1&quot;&gt; &lt;path d=&quot;M19.5 12.5C19.5 11.12 20.62 10 22 10V9C22 5 21 4 17 4H7C3 4 2 5 2 9V9.5C3.38 9.5 4.5 10.62 4.5 12C4.5 13.38 3.38 14.5 2 14.5V15C2 19 3 20 7 20H17C21 20 22 19 22 15C20.62 15 19.5 13.88 19.5 12.5Z&quot; stroke=&quot;#f5f5f5&quot; stroke-width=&quot;1.5&quot; stroke-linecap=&quot;round&quot; stroke-linejoin=&quot;round&quot; __cpp=&quot;1&quot;&gt;&lt;/path&gt; &lt;path d=&quot;M10 4L10 20&quot; stroke=&quot;#f5f5f5&quot; stroke-width=&quot;1.5&quot; stroke-linecap=&quot;round&quot; stroke-linejoin=&quot;round&quot; stroke-dasharray=&quot;5 5&quot; __cpp=&quot;1&quot;&gt;&lt;/path&gt; &lt;/g&gt;">
<g id="SVGRepo_bgCarrier" stroke-width="0" __cpp="1"/>
<g id="SVGRepo_tracerCarrier" stroke-linecap="round" stroke-linejoin="round" __cpp="1"/>
<g id="SVGRepo_iconCarrier" __cpp="1"> <path d="M19.5 12.5C19.5 11.12 20.62 10 22 10V9C22 5 21 4 17 4H7C3 4 2 5 2 9V9.5C3.38 9.5 4.5 10.62 4.5 12C4.5 13.38 3.38 14.5 2 14.5V15C2 19 3 20 7 20H17C21 20 22 19 22 15C20.62 15 19.5 13.88 19.5 12.5Z" stroke="#f5f5f5" stroke-width="1.5" stroke-linecap="round" stroke-linejoin="round" __cpp="1"/> <path d="M10 4L10 20" stroke="#f5f5f5" stroke-width="1.5" stroke-linecap="round" stroke-linejoin="round" stroke-dasharray="5 5" __cpp="1"/> </g>
</svg>